<?xml version="1.0" encoding="utf-8" standalone="no"?>
<svg id="PenglingFren" width="793.70081px" height="821.042px" viewBox="0 6E-06 39.098056 40.444901" version="1.1" xmlns="http://www.w3.org/2000/svg">
  <g id="root">
    <path id="helmet_highlight_and_pelt_shadow" style="fill:rgb(111,111,111);" d="M19.07439,25.30743C17.211028000000002,24.83774 16.818155,24.76349 16.818155,24.50432 16.818155,24.31954 16.807715,24.064 17.551545,24.3434 17.964004,24.49833 18.872309,24.76709 19.418418000000003,24.86487 20.297273000000004,25.02221 20.378274,25.04291 21.277040000000003,25.08579 21.588884000000004,24.97188 22.460024000000004,24.966359999999998 22.702958000000002,24.966359999999998 23.142077000000004,24.966359999999998 23.236935000000003,25.0736 23.270281000000004,25.3589 23.303231000000004,25.64117 23.523824000000005,25.576929999999997 22.854516000000004,25.67417 22.648398000000004,25.70247 22.075498000000003,25.72267 21.581406000000005,25.71927 20.801552000000004,25.714270000000003 20.470866000000004,25.659470000000002 19.074390000000005,25.30748z M20.3851,24.63351C20.152266,24.59061 19.781594000000002,24.53571 19.418468,24.468590000000003 18.568459,24.311550000000004 16.9561,23.821310000000004 16.9561,23.716310000000004 16.9561,23.671710000000004 16.662067999999998,23.571000000000005 16.545651,23.571000000000005 16.350269,23.571000000000005 16.442531,23.265900000000006 16.566091,23.142340000000004 16.594071,23.114340000000006 17.181547000000002,23.346580000000003 17.692958,23.529800000000005 18.204368000000002,23.713000000000005 18.727969,23.862890000000004 18.856515,23.862890000000004L19.090235000000003,23.862890000000004 18.892098000000004,23.122060000000005C18.687505000000005,22.357080000000003 18.778826000000006,21.205040000000004 18.899598000000005,21.014660000000006 18.944648000000004,20.943660000000005 18.954458000000006,21.555970000000006 18.961278000000004,21.736700000000006 18.978778000000002,22.200330000000005 19.212471000000004,23.238350000000008 19.364592000000005,23.495870000000007 19.534399000000004,23.783330000000007 19.558257000000005,23.85179000000001 19.762051000000007,23.742720000000006 19.940941000000006,23.647020000000005 20.843285000000005,22.618100000000005 21.251002000000007,22.051330000000007 21.410119000000005,21.830140000000007 21.61769500000001,21.290460000000007 21.628442000000007,21.306030000000007 21.939213000000006,21.75616000000001 21.048288000000007,22.938620000000007 20.357384000000007,23.608890000000006 20.14138300000001,23.818440000000006 19.964368000000007,24.018470000000004 19.964017000000005,24.053390000000007 19.963679000000006,24.088290000000008 20.142819000000006,24.11689000000001 20.362133000000007,24.11689000000001 20.581446000000007,24.11689000000001 21.257278000000007,24.17759000000001 21.863981000000006,24.25170000000001 22.470685000000007,24.32580000000001 23.090041000000006,24.36655000000001 23.240328000000005,24.34220000000001 23.480412000000005,24.303200000000007 23.888519000000006,24.28590000000001 23.809406000000006,24.41100000000001 23.732596000000008,24.532450000000008 23.449723000000006,24.69543000000001 22.427596000000005,24.70556000000001 21.768574000000005,24.71256000000001 20.962868000000004,24.734960000000008 20.730035000000004,24.69206000000001z M30.552427,13.17636C30.468577,13.23896 29.104218000000003,12.78847 28.849575,12.731480000000001 28.673854000000002,12.589500000000001 28.874645,12.44302 28.994024000000003,11.877020000000002 29.046874000000003,11.626610000000001 29.235775000000004,11.520730000000002 29.244530000000005,11.510350000000003 29.267070000000004,11.483650000000003 30.056341000000003,11.703960000000002 30.325292000000005,11.808320000000002 30.594640000000005,11.912840000000003 30.678856000000003,12.333420000000002 30.602062000000004,12.845520000000002 30.549512000000004,13.195940000000002 30.684222000000002,13.176940000000002 30.552432000000003,13.176360000000003z M19.331918,12.3711C19.240728,12.347900000000001 19.150947000000002,12.2895 18.959694000000002,12.24591 18.752055000000002,12.23691 18.773934000000004,12.21541 18.637673000000003,12.16411 18.274964000000004,12.140110000000002 18.171830000000003,12.066410000000001 17.280179000000004,11.908790000000002 16.531818000000005,11.849490000000001 16.209668000000004,11.699750000000002 16.025230000000004,11.691260000000002 15.937710000000004,11.687260000000002 16.016930000000006,11.208770000000001 16.080470000000005,11.183170000000002 16.138410000000004,11.159770000000002 18.201758000000005,11.380140000000003 18.533396000000007,11.455540000000003 19.003498000000008,11.562460000000003 19.698318000000008,11.669130000000003 20.019064000000007,11.939580000000003 20.245337000000006,12.130380000000002 19.938824000000007,12.319420000000003 19.913949000000006,12.359670000000003 19.866299000000005,12.436770000000003 19.610219000000004,12.441770000000004 19.331908000000006,12.371070000000003z M18.380437,6.82221C18.287307000000002,6.78221 18.180297,6.82321 18.002083,6.77451 17.850741,6.77151 17.491597,6.62429 17.491996,6.58939 17.492419,6.5544899999999995 17.813649,6.3530299999999995 18.127575,6.15438 18.441501,5.95573 18.972988,5.61919 19.066122,5.553039999999999 19.223495,5.441269999999999 19.288832,5.4603399999999995 19.556006,5.851259999999999L19.936173,6.452429999999999C19.936173,6.452429999999999 19.859783,6.632249999999999 19.783178,6.684229999999999 19.573372,6.826579999999999 19.771378,7.021499999999999 19.038465,6.839009999999998 18.782916,6.953999999999998 18.541956,6.938709999999999 18.380436999999997,6.822209999999998z" />
    <g id="helmet">
      <path id="horn" style="fill:rgb(175,163,138);" d="M35.356874,15.09903C35.342673999999995,14.85283 35.483784,14.92243 35.104741999999995,15.03233 34.38055799999999,15.64169 33.510293,15.70426 31.610004999999994,15.6693 30.914225999999992,15.6565 30.139219999999995,15.647 30.121460999999993,15.629199999999999 30.103700999999994,15.6114 30.180640999999994,15.080889999999998 30.281073999999993,14.7622 30.38150299999999,14.44351 30.503840999999994,14.05121 30.552935999999992,13.89042 30.60202599999999,13.72964 30.67102299999999,13.335510000000001 30.706251999999992,13.01458 30.74148199999999,12.69365 30.80613199999999,12.39525 30.849911999999993,12.35147 30.893691999999994,12.307670000000002 31.21652299999999,12.270370000000002 31.567306999999992,12.26857 32.19062199999999,12.26557 32.76145799999999,12.32077 33.35924299999999,12.53928 33.77664299999999,12.69187 34.40852099999999,12.61898 34.628074999999995,12.392999999999999 34.760850999999995,12.25631 35.510715,11.30417 35.632757,11.12745 35.641856999999995,11.11435 35.871258,10.58631 36.076910999999996,10.641309999999999 36.589076,10.405579999999999 36.79235499999999,10.59381 37.138332999999996,10.96849 38.04881699999999,11.72473 38.30356,11.743989999999998 38.528805999999996,11.82251 38.720673999999995,12.100579999999999 38.967194,12.35469 38.98971099999999,12.62694 39.012300999999994,12.90003 38.895970999999996,13.14789 38.668851999999994,13.17259 38.337261999999996,12.89977 37.765139999999995,12.921759999999999 37.78262899999999,12.933349999999999 37.800118999999995,12.944949999999999 37.52669399999999,13.29305 37.377140999999995,13.41889 37.227585,13.54474 37.10827499999999,13.66311 37.066531,13.77291 36.988121,13.97913 35.541126999999996,15.99518 35.476957,15.99518 35.457097,15.99518 35.369987,15.69755 35.369277,15.429789999999999z M16.554941,6.39027C16.479371,5.86243 15.876624,4.55529 15.630964,4.08667 15.492722,3.82296 15.350792,3.5595 15.234719,3.45068 15.040548,3.26863 15.04503,3.36238 14.339133,3.38568 13.917158,3.39968 13.342635,3.47528 13.011887,3.54349 12.68114,3.61179 11.903718,3.59069 11.344918,3.65831 9.884164,3.87431 8.933829,4.29082 7.902623,4.47536 7.760595,4.47598 7.312272,4.79648 6.916455,4.93494 6.056398,5.23578 5.734978,5.03545 5.944161,4.80303 6.444125,4.24742 9.310825,2.13846 9.571471,2.13846 9.592251000000001,2.13846 10.035875,1.9118199999999999 10.328649,1.7777299999999998 11.063995,1.4409299999999998 11.526895,1.2429199999999998 12.836138,0.9116899999999998 13.457949,0.7543799999999998 14.377428,0.4691899999999998 14.743657,0.32794999999999974 15.109886000000001,0.18671999999999975 15.374771,0.22317999999999974 15.532371000000001,0.22317999999999974 15.917510000000002,0.22317999999999974 16.529037000000002,0.6376099999999998 16.861126000000002,1.1473499999999999 17.011772,1.37858 17.323852000000002,1.7502199999999999 17.440308,1.8445699999999998 17.599023000000003,1.9731699999999999 17.664608,2.3365 17.859722,3.03294 18.030263,3.64168 18.292857,4.11148 18.543505000000003,4.53984 18.753914,4.89944 18.767061,5.37143 18.751363000000005,5.45294 18.735423000000004,5.53574 18.111981000000004,6.0207999999999995 17.561388000000004,6.35922L16.627971000000006,6.91266z" />
      <path id="horn_shadow" style="fill:rgb(147,132,101);" d="M30.489816,16.42234C30.262611,16.395339999999997 29.988834,16.27809 29.972375,16.261689999999998 29.955915,16.245189999999997 29.947415,15.913759999999998 30.004005,15.763819999999997L30.069695,15.599719999999998 31.561253999999998,15.668319999999998C33.508693,15.704219999999998 34.301542,15.533889999999998 35.026317,14.924029999999998 35.174202,14.799589999999998 35.322164,14.724659999999998 35.355122,14.757499999999999 35.388082000000004,14.790399999999998 35.434092,15.071309999999999 35.45738,15.38187L35.49971,15.94652 36.199690000000004,14.95331C36.584679,14.40704 36.932822,13.87364 36.97334000000001,13.76797 37.01386000000001,13.66231 37.17511600000001,13.46155 37.33169300000001,13.32185 37.57043300000001,13.10885 37.71240100000001,12.894319999999999 38.018029000000006,12.91634 38.472489,12.97344 38.525116000000004,13.123429999999999 38.55309200000001,13.19632 38.759103,13.54453 37.115765,15.137270000000001 36.17746700000001,16.053539999999998L35.678821000000006,16.44449 34.040366000000006,16.594099999999997 32.85660500000001,16.600099999999998 32.60084400000001,16.235529999999997C32.47252500000001,15.953889999999998 32.16242400000001,15.902609999999997 31.85527300000001,16.061439999999997 31.73334400000001,16.124539999999996 31.569362000000012,16.264449999999997 31.48076300000001,16.36236 31.33654300000001,16.52172 30.95025100000001,16.6156 30.85550300000001,16.52865 30.66433200000001,16.478749999999998 30.74798700000001,16.46005 30.489812000000008,16.4223z M15.644299,6.60272C15.562159,5.18937 15.534782,5.22474 15.235688,4.65556 14.824867,3.87377 14.450844,3.90415 13.418831,3.87218 12.173078,3.83358 11.803973,3.90668 11.49066,3.97208 10.129126,4.25603 9.053907,4.57032 8.372502,4.80636 7.21519,5.20727 6.199813,5.47592 5.925363,5.47592 5.711989,5.47592 5.62243,5.13201 5.714477,4.98465 5.770757,4.89455 6.057204,4.92695 6.093776,4.94955 6.130346,4.97215 6.498719,4.87445 6.912379,4.73241 7.326038,4.59037 7.881408,4.33385 8.017909,4.33385 8.707036,4.19013 9.228244,3.9345 9.93039,3.78896 10.163222999999999,3.7438599999999997 10.810922999999999,3.65155 11.369722999999999,3.58391 11.928522999999998,3.51631 12.656334999999999,3.40507 12.987082,3.3367899999999997 13.317829999999999,3.26849 13.933694,3.2012199999999997 14.355668999999999,3.1872499999999997 15.061566,3.1638499999999996 15.139766999999999,3.17725 15.333938,3.35972 15.649801,3.6558599999999997 16.019097,4.41888 16.283114,5.32085 16.644567000000002,6.55571 16.849405,6.96055 16.496289,6.95512 16.173671000000002,7.16042 15.819585,7.46701 15.813866,7.3686z" />
      <path id="helmet_highlight" style="fill:rgb(140,106,39);" d="M25.511735,3.05692C25.555165000000002,3.01462 26.067039,2.70959 26.695689,2.37558 27.324339000000002,2.0415599999999996 27.979201000000003,1.6194899999999999 28.072335000000002,1.5340799999999999 28.249387000000002,1.3717199999999998 29.039662000000003,1.2187299999999999 29.097744000000002,1.2768099999999998 29.116264,1.2953099999999997 29.182244,1.7394499999999997 29.306399000000003,2.2611299999999996L29.390759000000003,2.8142099999999997 27.073892000000004,3.0505299999999997C26.541014000000004,3.1048299999999998 25.970944000000003,3.14843 25.811102000000005,3.1972199999999997 25.651260000000004,3.2460199999999997 25.348459000000005,3.25412 25.391884000000005,3.21182z" />
      <path id="helmet_metal" style="fill:rgb(84,84,84);" d="M24.497824,17.82115C23.834162,17.5852,22.268826,17.10037,21.758735,16.48506L21.281398000000003,16.11156 21.646471000000002,15.704450000000001C21.787516,15.59406 22.142228000000003,15.13456 22.410281,14.774020000000002 22.678334,14.413490000000001 23.111693000000002,14.225200000000003 23.111693000000002,14.225200000000003 23.187183,14.228200000000003 23.594226000000003,14.408330000000003 24.002372,14.595620000000002 24.875774,14.996410000000003 25.6844,15.206260000000002 27.316206,15.439590000000003 27.471938,15.461890000000002 27.780409000000002,15.584480000000003 27.794472000000003,15.599480000000003 27.808532000000003,15.614480000000004 27.721262000000003,15.914160000000003 27.595164000000004,16.133210000000002 27.022015000000003,17.213220000000003 26.804347000000003,17.731910000000003 26.333540000000003,18.181520000000003 26.094009000000003,18.406540000000003 26.160849000000002,18.454010000000004 25.433269000000003,18.195420000000002z M28.37063,16.799C28.110294999999997,16.7157 27.796464,16.56727 27.743965999999997,16.53483 27.653275999999998,16.47883 27.798995999999995,16.05055 28.149600999999997,15.348659999999999 28.207751,15.23224 28.419392,14.641239999999998 28.569384999999997,14.01259 28.923435999999995,12.528699999999999 28.835093999999998,12.597339999999999 28.961187999999996,12.701989999999999 29.019467999999996,12.75039 29.426636999999996,12.889769999999999 29.658851999999996,12.94611 29.891064999999998,13.00241 30.161351999999997,13.057419999999999 30.271735999999997,13.09146 30.425746999999998,13.11836 30.469454999999996,13.190859999999999 30.552426999999998,13.176359999999999 30.523117,13.539309999999999 30.147372999999998,14.93099 29.764438,16.04202 29.443849999999998,16.972170000000002 29.510676,17.135350000000003 28.7179,16.881700000000002z M19.602566,15.32351C19.1369,15.05116 18.872118,14.87105 18.478562,14.6504 17.295942,13.987359999999999 16.129495,12.734639999999999 16.000213,11.95182 15.980982999999998,11.8354 15.903023,11.63895 16.017953,11.63514 16.369709,11.72004 16.483446999999998,11.71724 16.947549,11.81563 17.002178999999998,11.820630000000001 17.113432999999997,11.912930000000001 17.415124,11.9459 17.68133,11.9599 17.562162999999998,11.9611 17.804209999999998,12.0002 17.968542999999997,12.0509 18.215252999999997,12.037799999999999 18.381109999999996,12.0961L18.833139999999997,12.1846C19.670912999999995,12.354569999999999 19.933535999999997,12.1465 20.037278999999998,12.1638 20.151170999999998,12.2187 20.144786999999997,12.135 20.479598999999997,12.40365 21.396388999999996,13.101780000000002 21.751310999999998,13.37486 22.180726999999997,13.63978 22.425202,13.7906 22.769920999999997,13.95667 22.769920999999997,13.97344 22.769920999999997,14.09019 21.604685999999997,15.63658 21.382737999999996,15.77855L20.999031999999996,15.951089999999999 20.148231999999997,15.579949999999998z M16.178014,11.236080000000001C16.109544,11.290680000000002 16.125354,11.103550000000002 16.228304,10.95668 16.331259000000003,10.809800000000001 16.548991,10.492040000000001 16.550462000000003,10.45266 16.555262000000003,10.32344 16.960272000000003,9.89472 17.083692000000003,9.89472 17.251949000000003,9.89472 17.282866000000002,9.65391 17.225705,9.50495 17.199495000000002,9.436649999999998 17.439516,9.35671 17.511486,9.29698 17.62199,9.20528 18.047483,9.97919 18.047483,10.12019 18.047483,10.3441 18.156621,10.313149999999998 18.786227,10.957849999999999 19.070452,11.24889 19.542986,11.681729999999998 19.497764,11.677179999999998 19.452544,11.672179999999997 18.573573,11.531229999999999 18.256944,11.458939999999998 16.950866,11.292019999999999 17.070519,11.247239999999998 16.178016,11.236079999999998z M16.111644,8.8309C15.694383999999998,8.368129999999999 15.798120999999998,8.31946 15.843513999999999,8.09733 15.913644,7.754169999999999 15.969838999999999,7.506779999999999 16.77265,6.96969 17.458236,6.51103 17.446854,6.55887 17.868226,6.63752 18.101059,6.68102 18.680251,6.78845 18.92289,6.81571L19.628636999999998,6.88181 18.433742,8.07474C17.772003,8.76723 16.963478,9.52407 16.934777,9.52446 16.906077,9.52488 16.671723,9.34517 16.4093,9.05413z" />
      <path id="helmet" style="fill:rgb(73,49,0);" d="M27.025279,15.19623C27.002709,15.17363 26.885837000000002,15.17743 26.516475,15.12783 25.599623,15.004809999999999 24.437199,14.706349999999999 23.815527,14.39881 23.529685,14.257399999999999 23.189735,13.959919999999999 23.152894,13.923739999999999 23.116054,13.88754 23.676193,13.007189999999998 24.226233999999998,11.917119999999999 24.776273999999997,10.827039999999998 25.410373,9.412149999999999 25.663928,8.83006 25.917481,8.24798 26.638271,6.92758 27.179931999999997,5.8565499999999995 27.721593,4.7855099999999995 28.297979999999995,3.5807399999999996 28.382351999999997,3.2806599999999997 28.527390999999998,2.76482 28.60654,2.8567299999999998 28.852045999999998,2.8567299999999998 29.107062,2.8567299999999998 29.477189999999997,2.65813 29.359253,3.20184 29.448912999999997,3.9482899999999996 29.478714999999998,5.1680399999999995 29.340063,6.2360299999999995 29.267523,6.794829999999999 29.141328,8.327119999999999 29.102512,9.39815 29.035652000000002,11.243089999999999 29.085612,11.281179999999999 28.756536,12.72504 28.565496,13.56324 28.347391000000002,14.37051 28.271856,14.61499 28.13474,15.05878 28.191826,15.24759 27.837099,15.24759 27.641683999999998,15.24759 27.269199999999998,15.246590000000001 27.246626,15.22399z M22.061535,13.35058C20.768982,12.47626 19.651468,11.53849 19.034117,10.90524 18.248856,10.09976 17.910716,9.60534 17.91121,9.21903 17.911549,8.93815 18.055228,8.72577 19.085662,7.72728 19.702455,7.1296 20.271611,6.5371 20.364744,6.45349 20.812395000000002,6.051570000000001 22.601875000000003,4.80659 23.357310000000002,4.36557 23.822977,4.09372 24.423905,3.72376 24.749872000000003,3.50771 25.538737000000005,2.98484 25.145725000000002,3.24431 25.611240000000002,3.17585 25.797871,3.17085 25.738454,3.16565 26.076222,3.10155 26.420366,3.05275 26.778647000000003,3.00835 27.160182000000002,3.00735 27.675143000000002,2.9644500000000003 27.453673000000002,2.99115 27.877532000000002,2.9585500000000002 28.156557000000003,2.9122500000000002 28.396652000000003,2.8733500000000003 28.376972000000002,2.91995 28.103495000000002,3.56703 27.844691,4.0466999999999995 26.914994000000004,5.89757 26.306839000000004,7.1083099999999995 25.553810000000002,8.6423 25.327345000000005,9.177810000000001 24.942990000000005,10.086680000000001 23.659889000000003,12.6674 23.186114000000003,13.48178 23.070980000000002,13.67969 22.932774000000002,13.840710000000001 22.87899,13.839590000000001 22.825210000000002,13.838590000000002 22.457352,13.61851 22.061535000000003,13.350760000000001z" />
    </g>
    <g id="body">
      <path id="pelt_light" style="fill:rgb(152,151,151);" d="M19.41028,33.93795C18.860397,33.76865 18.066033,33.29743 17.701423,32.60195 17.112243999999997,31.47811 16.764985,30.077280000000002 16.921747,26.941290000000002 16.921578,25.69564 16.78535,24.126620000000003 16.968047,24.209300000000002 16.991366999999997,24.219900000000003 17.351388999999998,24.280300000000004 17.480082,24.346840000000004 17.608776,24.413440000000005 18.100761,24.524350000000005 18.447064,24.603540000000002 18.793367,24.682740000000003 19.331731,24.832380000000004 19.587847,24.900740000000003 20.880836,25.245860000000004 21.933615,24.906740000000003 23.138872,24.868740000000003L23.432710999999998,25.657760000000003 23.403090999999996,26.584290000000003C23.486630999999996,27.806760000000004 23.447600999999995,29.34823 23.191064999999995,31.065030000000004 22.879773999999994,33.14835 22.604791999999996,33.61928 21.509723999999995,33.944480000000006 20.980903999999995,34.10152000000001 19.930950999999993,34.09826 19.410275999999996,33.93748000000001z M21.741389,24.243920000000003C21.299006000000002,24.18202 20.717981,24.128090000000004 20.450223,24.12411 18.677726,24.022350000000003 18.180174,23.69196 17.787426,23.565060000000003 17.331091,23.401220000000002 16.743397,23.221880000000002 16.688666,23.202240000000003 16.613906,23.175440000000002 16.654006000000003,23.154040000000002 16.743906000000003,22.816350000000003 16.977325000000004,21.939450000000004 16.956757000000003,21.475780000000004 16.445298,20.949670000000005 15.974553,20.465430000000005 15.501914000000001,19.596930000000004 15.438756000000001,19.137720000000005 15.356056000000002,18.536410000000004 15.526076000000002,17.065660000000005 15.823026000000002,16.457430000000006 15.959438000000002,16.178030000000007 16.339826000000002,15.698450000000006 16.575438000000002,15.434580000000006 16.956948,15.007310000000006 17.240411,15.004120000000006 17.401135000000004,14.977990000000005 17.573321000000004,14.991690000000006 17.889495000000004,15.160160000000005 18.062242000000005,15.304550000000006 18.223407000000005,15.439260000000006 18.566109000000004,15.663810000000007 18.780926000000004,15.796410000000007 18.995744000000006,15.929010000000007 19.448119000000005,16.39927000000001 19.843370000000004,16.855720000000005 20.523595000000004,17.641280000000005 20.570663000000003,17.688040000000004 20.803071000000003,17.687810000000006 20.857471000000004,17.687760000000004 21.085315,17.513090000000005 21.359413000000004,17.263920000000006L21.916239000000004,16.781660000000006 22.827003000000005,17.221700000000006C23.134988000000003,17.373690000000007 23.607100000000006,17.608910000000005 24.026200000000006,17.815870000000004 24.445300000000007,18.022830000000003 25.005983000000008,18.320850000000004 25.128057000000005,18.350210000000004 25.324948000000006,18.397510000000004 25.155097000000005,18.536310000000004 25.193167000000006,18.931610000000003 25.236717000000006,19.383820000000004 25.193163000000006,20.985630000000004 25.128057000000005,21.309050000000003 25.106397000000005,21.416710000000002 24.826771000000004,21.58171 24.615728000000004,21.676880000000004 24.135663000000005,21.893360000000005 24.196937000000005,21.942360000000004 24.196937000000005,22.565280000000005 24.196937000000005,23.234330000000003 23.998508000000005,24.003660000000004 23.805592000000004,24.241900000000005 23.614613000000006,24.477750000000004 22.877237000000004,24.402960000000004 21.741388000000004,24.243900000000004z M23.55318,19.069080000000003C22.515044,18.532580000000003 21.496769,18.920010000000005 22.225246000000002,19.682320000000004 22.717619000000003,19.963400000000004 22.881907,20.177100000000003 23.55318,19.069080000000003z M18.636992,18.076110000000003C18.160916,18.187470000000005 17.693189999999998,18.059910000000002 17.74384,18.702910000000003 19.445175,19.617310000000003 19.53823,18.395740000000004 18.636992,18.076110000000003z" />
      <path id="beak_and_flippers" style="fill:rgb(198,134,16);" d="M16.296928,39.79306C14.030582,39.424879999999995 14.774147000000001,39.089099999999995 14.77673,38.60903 14.77813,38.346129999999995 15.26331,37.69379 15.944829,36.650999999999996L16.599591,35.64915 17.197289,36.249559999999995C17.675139,36.72958,18.018187,36.94589,18.655223000000003,37.21653L19.435495000000003,37.6212 19.440095000000003,38.510200000000005C19.442695000000004,38.99915000000001,19.470285000000004,39.54207,19.501465000000003,39.7167L19.558175000000002,40.034200000000006 19.477545000000003,40.118500000000004C19.257118000000002,40.1135,18.093733000000004,40.39061,17.346918000000002,39.98279z M22.511988000000002,39.905939999999994C22.194978000000003,39.768159999999995 22.220736000000002,39.486349999999995 22.406856,38.71554 22.474316,38.436139999999995 22.522057,37.952679999999994 22.523045,37.812979999999996 22.526745,37.289359999999995 22.781704,37.00176 23.152302,36.73484 23.350198,36.59231 23.642497,36.2835 23.872593,36.04862L24.43978,35.7373 24.859699,36.0332C25.008799,36.16411 25.473001999999997,36.51804 25.72957,36.688340000000004 26.453642,37.168960000000006 26.758159,37.68703000000001 26.828761,38.15784000000001 26.933671,38.85743000000001 26.546994,38.94655000000001 25.128056,39.520480000000006 23.850023,40.037420000000004 23.054692,40.14182000000001 22.511988000000002,39.90594000000001z M19.465027,23.39601C19.420727,23.311510000000002 19.358071,23.084220000000002 19.325802,22.92123 19.293532,22.75825 19.211154999999998,22.376330000000003 19.188205,22.29483 19.093335,21.859260000000003 19.091555,21.8126 19.068227,21.529590000000002L18.953344,20.99192 19.75761,20.8712C20.247477,20.797700000000003 20.338819,20.750020000000003 20.498442999999998,20.852800000000002 20.599981,20.918200000000002 20.826352999999997,20.99782 21.001492999999996,21.02983 21.176631999999998,21.06183 21.578966999999995,21.211750000000002 21.597455999999998,21.24163 21.671515999999997,21.36147 21.112381,21.97334 20.545385999999997,22.64119 19.772577999999996,23.551470000000002 19.662573999999996,23.71959 19.560112999999998,23.52417z" />
      <path id="pelt_highlight" style="fill:rgb(48,47,45);" d="M20.326999,17.14859C19.369757,16.068489999999997 18.987619000000002,15.688849999999999 18.509046,15.376509999999998 17.947792,15.010219999999999 17.667924000000003,14.685279999999999 17.744212,14.608989999999999 17.767022,14.586189999999998 18.134473,14.635089999999998 18.246357,14.721219999999999 18.459575,14.88539 20.826267,16.0919 20.980485,16.21911L21.744774000000003,16.71362 21.290427000000005,17.200989999999997C21.095201000000003,17.39991 20.821022000000006,17.545129999999997 20.781181000000004,17.545129999999997 20.741341000000002,17.545129999999997 20.440492000000003,17.276649999999997 20.326999000000004,17.148589999999995z" />
      <path id="pelt" style="fill:rgb(24,23,16);" d="M19.089134,36.93144C18.399332,36.86074 18.081025,36.67237 17.393529,35.92788 16.658465,35.13188 16.318728,34.62842 15.984302000000001,33.59394 15.567961,32.30607 15.394417,31.41151 15.316011,29.57786 15.237581,27.7436 15.168223,27.16137 14.718964,26.35802 14.328736,25.66023 13.900253,25.26384 12.806811,24.36451 11.762239,23.50537 11.033962,22.50792 10.19365,20.93263 9.890967,20.3652 9.396227,19.47512 9.144757,19.0254 7.878979,16.76173 7.459812,15.74008 7.365158,14.63553 7.304378,13.926219999999999 7.5123240000000004,13.76471 8.204121,13.76471 8.583863000000001,13.76471 8.851636000000001,13.87582 9.384185,14.16601 10.523974,14.78708 10.841524,15.16671 11.686255000000001,16.416249999999998 12.025539,16.91812 12.499994000000001,17.43987 12.872100000000001,17.77423 13.208498000000002,18.07649 13.703447,18.61072 14.037673000000002,18.97907L14.684614000000002,19.68223 14.481248,20.53726 14.317332,21.19144 14.347502,21.8562C14.442872000000001,22.23647 14.606588,22.601480000000002 14.618429,22.728060000000003 14.648709,23.051720000000003 15.349376000000001,23.606780000000004 15.624590000000001,23.726260000000003 15.976847000000001,24.021020000000004 16.140604,23.969430000000003 16.446719,24.233030000000003L16.693652,24.391310000000004 16.652832,27.113100000000003C16.654532,29.726430000000004 16.680882,30.410040000000002 16.9264,31.376530000000002 17.251812,32.657560000000004 18.087916,33.78909 19.024820000000002,34.157720000000005 19.712571,34.42832000000001 20.863273000000003,34.39914 21.609166000000002,34.13152 22.745745000000003,33.72432 23.048421,33.18394 23.390573000000003,31.104280000000003 23.639173000000003,29.59325 23.794606,26.962950000000003 23.656965000000003,25.851640000000003L23.560255,25.180320000000002 23.864781,25.163420000000002C23.991139,25.15642 24.309194,25.065220000000004 24.566082,24.930130000000002 24.82297,24.795 25.1262,24.650280000000002 25.270245000000003,24.618650000000002 25.41429,24.58705 25.528587,24.494660000000003 25.574767,24.40837 25.696413,24.181070000000002 25.698408,23.81165 25.561107,23.6565 25.475337,23.5596 25.471687,23.35501 25.515127,23.07593 25.588727,22.60314 25.946895,22.19105 26.407827,21.9756 26.535455000000002,21.8776 26.695444000000002,21.78325 26.771794,21.7071 26.771794,21.7071 27.299803,21.22185 27.940095,20.71116 29.405127999999998,19.54265 30.516793,18.44173 31.088345,17.51105 31.721089,16.48073 31.810725,16.32751 32.111135,16.306710000000002 32.255641,16.29671 32.324968,16.326110000000003 32.36924,16.331210000000002 32.36924,16.331210000000002 32.45464,16.46038 32.503978,16.47688 32.759918,16.56218 32.900946,18.28036 32.695553999999994,19.34497 32.629633999999996,19.68667 32.49058099999999,20.63616 32.250136,20.93526 32.006899,21.60476 31.834777,21.84697 30.926094999999997,23.28156 30.628121999999998,23.75199 29.741191999999998,24.63915 29.261500999999996,24.936329999999998 29.118211999999996,25.025129999999997 28.727538999999997,25.22225 28.450504999999996,25.33156 28.173469999999995,25.44087 27.848187999999997,25.70509 27.713363999999995,25.83298 27.421226999999995,26.11007 27.126514999999994,26.69801 27.084068999999996,27.054859999999998 27.067448999999996,27.19456 26.727518999999997,28.042209999999997 26.514452999999996,28.70985 26.301386999999995,29.377499999999998 26.115691999999996,30.66988 25.880929999999996,31.57401 25.285325999999994,33.86783 25.091303999999997,34.18691 24.335993999999996,34.94989 23.293400999999996,36.00307 22.343783999999996,36.51776 20.836204999999996,36.8468 20.041425999999998,37.02026 19.985534999999995,37.022960000000005 19.089149999999997,36.9311z M24.188897,22.88252C24.227747,21.75505 24.413847,21.93994 24.797655000000002,21.76687 24.983541000000002,21.68307 25.189022,21.70297 25.214978000000002,21.72887 25.214978000000002,21.72887 25.284808,22.14772 25.251728000000004,22.598390000000002 25.197008000000004,23.3439 25.104160000000004,23.57053 24.930071000000005,23.63672 24.824827000000006,23.67672 24.803789000000005,23.79582 24.773390000000006,23.844920000000002 24.742990000000006,23.89412 24.557658000000007,23.905420000000003 24.478620000000006,23.94771 24.348100000000006,24.01751 24.185083000000006,23.96131 24.206684000000006,23.33433z M15.683385,22.6388C15.384091,22.49125 15.250351,22.35348 15.200395,22.28978 15.150435,22.22608 15.017971000000001,22.10901 14.891733,22.04391 14.55225,21.86883 14.504884,21.29092 14.743958000000001,20.54739 14.845232000000001,20.23243 14.912886,19.91321 14.926459000000001,19.84517 14.940029000000001,19.777169999999998 15.068657000000002,19.54417 15.105097,19.459699999999998 15.160467,19.331359999999997 15.243149,19.5052 15.370278,19.789179999999998 15.575047000000001,20.24655 16.126876,20.99402 16.399395000000002,21.22806 16.596282000000002,21.39714 16.666413000000002,21.449849999999998 16.658900000000003,21.921409999999998 16.654300000000003,22.21276 16.564280000000004,22.721659999999996 16.534009,22.816499999999998 16.480489000000002,22.984119999999997 16.411143000000003,22.990109999999998 15.88216,22.7294z" />
    </g>
    <path id="outline" style="fill:rgb(0,0,0);" d="M17.330247,40.20856C15.225307,39.84215 14.807012,39.69754 14.579538,39.25766 14.317743,38.751400000000004 14.563578,38.10358 15.633175999999999,36.48113 16.012425999999998,35.90585 16.322723,35.40189 16.322723,35.3612 16.322723,35.320499999999996 16.224173,35.09276 16.103723,34.855059999999995 15.377154999999998,33.42124999999999 14.978055,31.254829999999995 14.961766999999998,28.656239999999993 14.954666999999999,27.531369999999992 14.848865999999997,27.105299999999993 14.380672999999998,26.317209999999992 14.037416,25.73943 13.742854,25.43877 12.468622,24.36558 11.492216,23.54323 10.861711,22.70058 9.930805,20.9739 9.519618,20.21121 8.984712,19.2443 8.742125,18.8252 7.757902,17.12482 7.218254,15.72006 7.124868,14.61531 7.075718,14.03388 7.086468,13.97053 7.261997,13.807 7.394345,13.6837 7.620189,13.611600000000001 8.002219,13.57069 8.534117,13.51369 8.575401,13.52369 9.272576,13.87719 10.488520000000001,14.493730000000001 11.098555000000001,15.04812 11.867533000000002,16.23543 12.283806000000002,16.87817 14.784452000000002,19.43635 14.836230000000002,19.27244 15.019206000000002,18.69319 15.084670000000003,18.41647 15.220909000000002,17.646349999999998 15.464770000000003,16.26787 16.179436000000003,15.147839999999999 17.191676,14.557739999999999 17.435535,14.415579999999999 17.596956000000002,14.298189999999998 17.55039,14.29688 17.431868,14.29388 16.665865,13.5615 16.339832,13.14 15.983333000000002,12.679120000000001 15.734228000000002,12.11949 15.731916000000002,11.774280000000001 15.729816000000001,11.46222 16.134483000000003,10.60237 16.504368000000003,10.13292L16.748835,9.82265 16.272803,9.32859C16.010986,9.05686 15.700576,8.69177 15.583004,8.51729 15.385519,8.22422 15.37691,8.17263 15.469985,7.83996 15.525395,7.64191 15.546965,7.34651 15.517915,7.18353 15.488865,7.02055 15.435435,6.5443 15.399176,6.1252 15.319326,5.20217 14.965083,4.39295 14.570905,4.23312 14.297702,4.12235 12.025026,4.06857 11.581391,4.16232 11.418407,4.19682 10.962006,4.30475 10.567166,4.40224 10.172326,4.49974 9.810376,4.5861 9.762833,4.59418 9.685913,4.60728 9.229646,4.7493 7.051724,5.43823 6.725757,5.54134 6.26167,5.63599 6.020418,5.64856 5.628554,5.66896 5.566331,5.64784 5.436913,5.45032 5.295664,5.23475 5.298327,5.22138 5.543569,4.91519 5.851253,4.53102 7.340665,3.27051 8.167675,2.69435 9.300999,1.9048 11.464101,1.00369 12.766724,0.77847 13.075889,0.72497 14.403327,0.31905 14.502391,0.24766 14.548960999999998,0.21416 14.743267,0.13746999999999998 14.934191,0.07737 15.677522,-0.15663000000000002 16.417532,0.14717 16.923975,0.8942399999999999 17.074942,1.11694 17.316837999999997,1.41662 17.461523999999997,1.5602 17.669714999999997,1.76679 17.777067,2.0135 17.976156999999997,2.7429 18.134634999999996,3.32351 18.347654,3.86367 18.551829999999995,4.20266 18.730087999999995,4.4986299999999995 18.915897999999995,4.85541 18.964740999999997,4.99553 19.028310999999995,5.17789 19.095946999999995,5.23919 19.202763999999995,5.211259999999999 19.397682999999994,5.160259999999999 19.432874999999996,5.190059999999999 19.864535999999994,5.770289999999999 20.261685999999994,6.304169999999999 20.194783999999995,6.296219999999999 20.730812999999994,5.873149999999999 20.850211999999996,5.778949999999999 21.055383999999993,5.625609999999999 21.186750999999994,5.532479999999999 21.318117999999995,5.439379999999999 21.601427999999995,5.2315999999999985 21.816328999999993,5.070809999999999 22.031228999999993,4.910029999999999 23.216706999999992,4.178279999999999 24.450723999999994,3.444709999999999 25.684739999999994,2.7111399999999986 26.846789999999995,1.9980299999999989 27.033056999999992,1.8600099999999988 27.746157999999994,1.3316299999999988 29.038684999999994,0.8155699999999988 29.212826999999994,0.9897199999999988 29.264856999999992,1.0417199999999989 29.336256999999993,1.3041099999999988 29.371489999999994,1.5727299999999989 29.406719999999993,1.8413599999999988 29.474046999999995,2.289749999999999 29.521097999999995,2.5691499999999987 29.667507999999994,3.4385699999999986 29.716695999999995,4.833269999999999 29.625747999999994,5.5364499999999985 29.577847999999996,5.906799999999999 29.513936999999995,6.457459999999998 29.483721999999993,6.7601499999999985 29.453511999999993,7.062829999999998 29.407241999999993,7.345739999999998 29.380907999999994,7.388839999999998 29.354577999999993,7.431939999999998 29.324057999999994,8.121129999999999 29.313087999999993,8.920389999999998 29.302117999999993,9.719649999999998 29.267357999999994,10.608539999999998 29.235827999999994,10.895709999999998 29.179687999999995,11.407089999999997 29.182537999999994,11.417199999999998 29.374541999999995,11.387899999999998 29.626153999999996,11.349499999999999 30.327607999999994,11.534049999999999 30.594352999999995,11.708829999999999 30.707855999999996,11.78323 30.800685999999995,11.909849999999999 30.800642999999994,11.99026 30.800572999999993,12.120439999999999 30.896822999999994,12.134659999999998 31.677959999999995,12.11989 32.519510999999994,12.10399 33.17296999999999,12.207089999999999 33.56698599999999,12.41797 33.674139999999994,12.47527 33.87667199999999,12.48837 34.084197999999994,12.45137 34.43289899999999,12.38917 34.50187499999999,12.317810000000001 35.457387999999995,11.031260000000001 35.699265999999994,10.70559 36.03674899999999,10.519840000000002 36.494209,10.46061 36.79418,10.42181 36.82825,10.44251 37.123017999999995,10.844100000000001 37.294427999999996,11.0776 37.55867799999999,11.32047 37.71023999999999,11.383790000000001 37.861802999999995,11.447090000000001 38.01182699999999,11.541030000000001 38.04362799999999,11.592490000000002 38.07881799999999,11.649390000000002 38.21363999999999,11.664990000000001 38.38808399999999,11.632290000000001 38.65157099999999,11.58289 38.67472099999999,11.595590000000001 38.67472099999999,11.789660000000001 38.67472099999999,11.905780000000002 38.76997099999999,12.103570000000001 38.88638799999999,12.229190000000001 39.00280499999999,12.354800000000001 39.09805499999999,12.51393 39.09805499999999,12.5828 39.09805499999999,12.76368 38.66640299999999,13.72033 38.51061899999999,13.88471 38.43788899999999,13.96141 38.168837999999994,14.26545 37.91272099999999,14.56028 37.26092899999999,15.31058 35.88550699999999,16.66488 35.76739599999999,16.67266 35.71330599999999,16.676660000000002 35.59285499999999,16.69576 35.499720999999994,16.71596 35.40659099999999,16.736259999999998 34.83508799999999,16.76796 34.22972099999999,16.786459999999998 33.624354999999994,16.804959999999998 33.10295399999999,16.823559999999997 33.07105299999999,16.827859999999998 33.03915299999999,16.83186 33.03456299999999,17.16895 33.060852999999994,17.576399999999996 33.199808,19.729989999999997 32.48422099999999,21.681149999999995 30.600596999999993,24.284669999999995 29.758263999999993,25.448939999999993 29.139956999999992,26.018079999999994 28.295747999999993,26.406259999999996 27.909604999999992,26.596669999999996 27.644388999999993,26.461959999999998 27.335313999999993,27.030629999999995 27.308563999999993,27.173719999999996 26.434407999999994,29.871049999999997 26.057842999999995,31.609899999999996 25.754014999999995,33.012879999999996 25.335973999999993,34.230219999999996 24.911043999999993,34.949389999999994L24.633033999999995,35.41989999999999 24.817044999999997,35.62189999999999C24.918250999999998,35.73299999999999 25.195117999999997,35.94943999999999 25.432304999999996,36.10285999999999 26.252190999999996,36.63320999999999 26.806682999999996,37.212799999999994 26.947349999999997,37.686479999999996 27.197549999999996,38.528999999999996 27.029799999999998,39.034609999999994 26.392140999999995,39.359919999999995 25.624920999999993,39.751329999999996 24.054107999999996,40.309529999999995 23.606919999999995,40.349669999999996 22.737614999999995,40.42767 21.995388999999996,40.08257 21.995388999999996,39.60030999999999 21.995388999999996,39.46153999999999 22.049698999999997,39.09282999999999 22.116076999999997,38.78094999999999 22.182456999999996,38.46906999999999 22.256529999999998,38.01665999999999 22.280689,37.77558999999999L22.324609,37.33726999999999 21.850409,37.50041999999999C21.505772999999998,37.61898999999999,21.145015,37.66356999999999,20.530043,37.66356999999999L19.683875999999998,37.66356999999999 19.731436,38.966499999999996C19.764346,39.868069999999996 19.750016,40.29841 19.684925999999997,40.363499999999995 19.538596,40.509829999999994 18.770401999999997,40.45929999999999 17.330249999999996,40.2086z M19.425066,39.801359999999995C19.396206,39.62674,19.372166,39.06211,19.371656,38.54664L19.370724000000003,37.60941 18.587557000000004,37.23948C17.953377000000003,36.93992,17.689793000000005,36.75346,17.201991000000003,36.25935L16.599591000000004,35.64915 15.894400000000005,36.71984C15.231371000000005,37.72652 14.805308000000004,38.55683 14.800734000000004,38.851189999999995 14.796534000000003,39.11908999999999 15.062367000000004,39.347649999999994 15.539324000000004,39.486309999999996 16.162309000000004,39.66741 18.622681000000004,40.09721 19.106635000000004,40.109469999999995L19.477546000000004,40.118469999999995z M17.712707,39.496109999999994C17.688487000000002,39.433009999999996 17.680157,39.137719999999995 17.694197000000003,38.839949999999995 17.713687000000004,38.42648 17.749737000000003,38.29852999999999 17.846722000000003,38.29852999999999 17.946562000000004,38.29852999999999 17.979011000000003,38.438869999999994 17.998450000000002,38.954699999999995 18.01921,39.505599999999994 18.00185,39.610859999999995 17.889959,39.610859999999995 17.816689,39.610859999999995 17.736925,39.559259999999995 17.712707,39.496109999999994z M16.097593000000003,39.22530999999999C15.998773000000003,38.96777999999999 16.548967000000005,38.002199999999995 16.794535000000003,38.002199999999995 16.936864000000003,38.002199999999995 16.957769000000003,38.30468 16.821275000000004,38.389039999999994 16.769505000000002,38.42103999999999 16.636640000000003,38.65187999999999 16.526009000000002,38.90203999999999 16.322016,39.363299999999995 16.189051000000003,39.463629999999995 16.097597,39.22530999999999z M25.128056,39.52047999999999C26.321419000000002,39.05199999999999 26.737099,38.76519999999999 26.736250000000002,38.41087999999999 26.734550000000002,37.699479999999994 26.363940000000003,37.192539999999994 25.297218,36.442449999999994 24.947874000000002,36.196799999999996 24.609029,35.931929999999994 24.544229,35.853849999999994 24.437088000000003,35.72474999999999 24.375724,35.76004999999999 23.867067000000002,36.24383999999999 23.559427000000003,36.53641999999999 23.182993000000003,36.87075999999999 23.030545000000004,36.98682999999999 22.804542000000005,37.15889999999999 22.738874000000003,37.28383999999999 22.674860000000002,37.66352999999999 22.631680000000003,37.91964999999999 22.550633,38.37684999999999 22.494755,38.679529999999986 22.291361000000002,39.78127999999999 22.274634000000002,39.67637999999999 22.684303,39.868189999999984 23.240064,40.128399999999985 23.772416,40.05265999999998 25.128056,39.520479999999985z M23.908612,38.670539999999995C23.565094000000002,37.93042 23.525051,37.79091999999999 23.626890000000003,37.68908 23.784073000000003,37.53189 23.837762,37.604479999999995 24.234136000000003,38.5102 24.600134000000004,39.3465 24.625561000000005,39.46742 24.443385000000003,39.50533 24.345975000000003,39.52563 24.198963000000003,39.29611 23.908612,38.67054z M25.223278,38.205729999999996C24.850074,37.427949999999996 24.793854,37.15553 25.006548000000002,37.15553 25.154395,37.15553 25.805389,38.45939 25.805389,38.75551 25.805389,39.13603 25.557187000000003,38.90162 25.223278,38.20573z M20.771877,36.73605C22.279455,36.40701 23.229072,35.89231 24.271665,34.83913 25.026975999999998,34.07615 25.151429999999998,33.7788 25.682132,31.469099999999997 25.881815,30.600049999999996 26.219519,29.34275 26.432586,28.675099999999997 26.645652000000002,28.00745 26.833575,27.346899999999998 26.850192,27.207199999999997 26.892642,26.850349999999995 27.351053,25.981779999999997 27.643189,25.704679999999996 27.778012999999998,25.576799999999995 28.114988,25.382729999999995 28.392024,25.273419999999994 28.669058,25.164099999999994 29.012959,25.002029999999994 29.156247999999998,24.913259999999994 29.635938999999997,24.616089999999993 30.522868999999996,23.740629999999992 30.820842,23.270199999999996 31.72943,21.835749999999997 31.913363,21.499849999999995 32.156847,20.830349999999996 32.559004,19.724559999999997 32.689077,18.905919999999995 32.643605,17.766859999999994 32.599835,16.670469999999995 32.489398,16.327529999999996 32.18009,16.327529999999996 31.918196,16.327529999999996 31.697409,16.573309999999996 31.140249,17.485069999999997 30.55476,18.443189999999998 29.472835,19.562479999999997 27.985556000000003,20.748729999999995 27.345264000000004,21.259429999999995 26.821389000000003,21.713179999999994 26.821389000000003,21.757079999999995 26.821389000000003,21.800979999999996 26.659464000000003,21.906909999999996 26.461556000000005,21.992509999999996 25.963417000000007,22.207959999999996 25.617651000000006,22.624179999999996 25.544052000000004,23.096969999999995 25.500612000000004,23.376049999999996 25.516652000000004,23.518609999999995 25.602432000000004,23.615529999999996 25.739733000000005,23.770679999999995 25.758409000000004,24.226919999999996 25.636762000000004,24.454209999999996 25.590582000000005,24.540509999999998 25.434945000000006,24.636989999999997 25.290900000000004,24.668619999999997 25.146855000000006,24.700219999999998 24.818820000000006,24.836709999999997 24.561932000000006,24.971839999999997 24.305044000000006,25.106969999999997 23.991318000000007,25.217529999999996 23.864765000000006,25.217529999999996L23.634666000000006,25.217529999999996 23.710696000000006,25.831359999999997C23.848337000000004,26.942669999999996 23.732706000000007,29.675489999999996 23.484105000000007,31.186529999999998 23.141953000000008,33.266189999999995 22.827584000000005,33.79488 21.691005000000008,34.20207 20.945111000000008,34.4693 19.677480000000006,34.466319999999996 18.989729000000008,34.19607 18.052824000000008,33.827439999999996 17.20219000000001,32.71579 16.876779000000006,31.434759999999997 16.631268000000006,30.468269999999997 16.580070000000006,29.726779999999998 16.578406000000005,27.113449999999997L16.576706000000005,24.479359999999996 16.376561000000006,24.390859999999996C15.570086000000005,24.159669999999995 15.434244000000007,23.912939999999995 14.495636000000006,22.780999999999995 14.483796000000007,22.654419999999995 14.396076000000006,22.239709999999995 14.300714000000006,21.859439999999996L14.127320000000006,21.168019999999995 14.375994000000006,20.432339999999996 14.624669000000006,19.696669999999997 14.016985000000005,19.026929999999997C13.682759,18.65858 13.134067,18.10988 12.797669,17.80762 12.425563,17.47326 11.967644,16.93498 11.62836,16.43311 10.783629,15.18357 10.424738,14.84528 9.284949,14.22421 8.7524,13.93402 8.559041,13.87252 8.179299,13.87252 7.4875050000000005,13.87252 7.395308,13.97615 7.456092,14.685459999999999 7.550742,15.790009999999999 7.953376,16.786849999999998 9.219154,19.05052 9.470623999999999,19.500239999999998 9.924023,20.332449999999998 10.226706,20.89988 11.067018000000001,22.47517 11.8201,23.44781 12.864672,24.30695 13.958114,25.20628 14.34939,25.627480000000002 14.739618,26.32527 15.188877,27.128619999999998 15.311977,27.74392 15.390408,29.57818 15.468818,31.41183 15.609285,32.29812 16.025626,33.58599 16.360052,34.620470000000005 16.594136,35.02112 17.3292,35.81712 18.016696,36.56161 18.335003,36.75 19.024805,36.82068 19.92119,36.912580000000005 19.977081000000002,36.90988 20.77186,36.736380000000004z M21.29475,33.90309C22.460975,33.59261 22.742276,33.15183 23.109488,31.05953 23.300855,29.96916 23.413383,27.00732 23.310408,25.77112 23.236568,24.8847 23.267768,24.8992 21.736075,25.03912 20.744253999999998,25.12972 20.553716,25.12262 19.523915,24.95672 18.867973,24.85103 18.113996999999998,24.66701 17.719723,24.516360000000002 17.347189999999998,24.37403 17.023367999999998,24.254490000000004 17.000121,24.25072 16.927491,24.23892 16.938641,28.94115 17.013341,29.82872 17.194664,31.98312 18.057443,33.51029 19.299972,33.87618 19.870113,34.04408 20.722016,34.055569999999996 21.294747,33.903079999999996z M22.918563,24.62225C23.380467,24.61925 23.399655,24.60995 23.681141,24.236430000000002 23.950298,23.879240000000003 23.976861,23.78525 24.072603,22.851280000000003 24.182466,21.779580000000003 24.217386,21.661530000000003 24.424559000000002,21.661530000000003 24.497809000000004,21.661530000000003 24.686058000000003,21.582230000000003 24.842896000000003,21.485290000000003L25.128056000000004,21.309050000000003 25.128056000000004,19.82963 25.128056000000004,18.35021 24.641223,18.1396C24.195954,17.94696 23.03251,17.399420000000003 22.216102,16.99828 21.942419,16.8638 21.870576,16.855710000000002 21.792769,16.950580000000002 21.741229,17.01348 21.518697,17.22709 21.298258,17.42537 20.990629000000002,17.702070000000003 20.851765,17.77441 20.700892,17.73654 20.59278,17.70944 20.177193,17.310750000000002 19.777364,16.850630000000002 19.377536,16.390520000000002 18.871634999999998,15.903610000000002 18.65314,15.768610000000002 18.434645,15.633620000000002 18.135241,15.424150000000003 17.9878,15.303120000000002 17.840358,15.182100000000002 17.577745,15.060810000000002 17.404217,15.033600000000002 17.102936,14.986400000000001 17.067446999999998,15.007600000000002 16.617107999999998,15.505260000000002 15.981240999999999,16.20792 15.671823999999997,16.868250000000003 15.564802999999998,17.75099 15.517872999999998,18.138090000000002 15.461590999999999,18.48374 15.439734999999997,18.51911 15.417874999999997,18.55451 15.433834999999997,18.822560000000003 15.475114999999997,19.11485 15.563144999999997,19.73764 15.922503999999996,20.39332 16.488754999999998,20.96433 16.839961999999996,21.31848 16.868751999999997,21.38153 16.899206999999997,21.86318 16.922746999999998,22.23553 16.882016999999998,22.5292 16.754340999999997,22.90766 16.543333999999998,23.53313 16.544156999999995,23.52417 16.697670999999996,23.52417 16.764190999999997,23.52417 16.869723999999998,23.575270000000003 16.932178999999998,23.63772 17.096757999999998,23.802300000000002 18.264142999999997,24.166590000000003 19.243719,24.359050000000003 19.709384999999997,24.450550000000003 20.280884999999998,24.564120000000003 20.513719,24.611430000000002 20.746551999999998,24.658730000000002 21.27628,24.681130000000003 21.690891999999998,24.661130000000004 22.105504999999997,24.641130000000004 22.657954999999998,24.623630000000002 22.918559,24.622230000000002z M19.382762,23.647270000000002C19.175683,23.384010000000004 18.942441,22.425940000000004 18.883876,21.59803 18.848066,21.09185 18.862526,20.9842 18.966306,20.9842 19.060465999999998,20.9842 19.104335,21.128130000000002 19.1405,21.5557 19.19201,22.164700000000003 19.415624,23.240930000000002 19.528109999999998,23.42123 19.565409999999996,23.48103 19.650028,23.50683 19.716155999999998,23.478530000000003 19.891434999999998,23.403630000000003 20.985982999999997,22.062600000000003 21.233386,21.619600000000002 21.47492,21.1871 21.710473999999998,21.09588 21.617145999999998,21.47098 21.512082,21.893250000000002 19.891226999999997,23.86281 19.648787,23.86281 19.595747,23.86281 19.476029999999998,23.76581 19.382759,23.64722z M20.217389,22.27304C20.217389,22.23684 20.277149,22.12189 20.350182,22.01762 20.529777,21.761210000000002 20.674854,21.869400000000002 20.503044,22.131610000000002 20.371842,22.331850000000003 20.217389,22.408320000000003 20.217389,22.27304z M22.334056,20.255850000000002C21.92468,20.04465 21.497033000000002,19.88435 21.342201,19.884050000000002 21.152399,19.88371 21.041116,19.82955 20.974538,19.70513 20.893318,19.55337 20.926907999999997,19.45726 21.199565999999997,19.06138 21.375842999999996,18.80543 21.603146999999996,18.54159 21.704686999999996,18.47506 21.975985999999995,18.29729 22.655340999999996,18.24167 23.192700999999996,18.35323 23.766240999999997,18.4723 24.066587999999996,18.75475 24.189732999999997,19.29086 24.414539999999995,20.26956 24.210092999999997,20.65259 23.471598999999998,20.636329999999997 23.155503999999997,20.629329999999996 22.878435999999997,20.53673 22.334055999999997,20.25585z M23.085349,19.328930000000003C23.102739,19.312030000000004 23.094849,19.240430000000003 23.067729,19.169840000000004 23.031029,19.074240000000003 22.919327,19.049320000000005 22.629157,19.072240000000004 22.182938999999998,19.107440000000004 22.122912,19.144540000000003 22.197568999999998,19.339060000000003 22.241919,19.454640000000005 22.321613999999997,19.468720000000005 22.652527999999997,19.419460000000004 22.873184,19.386660000000003 23.067950999999997,19.345860000000005 23.085345999999998,19.328960000000006z M18.940675,19.621450000000003C18.675096999999997,19.51375 18.330441,19.468280000000004 17.754012,19.464930000000003 17.078392,19.46093 16.918046,19.434130000000003 16.801512,19.305360000000004 16.470692,18.939810000000005 16.758422,18.254280000000005 17.400627999999998,17.877920000000003 17.783310999999998,17.653650000000003 17.792343999999996,17.652650000000005 18.506272,17.755880000000005 19.351834,17.878130000000006 19.65937,18.017210000000006 19.834956,18.356760000000005 19.984023999999998,18.645020000000006 19.995071999999997,18.877090000000006 19.879526,19.292990000000003 19.762354,19.714740000000003 19.444720999999998,19.825870000000002 18.940671,19.621450000000003z M18.83419,18.59236C18.82077,18.32473 18.80996,18.3172 18.43939,18.3172 18.089434,18.3172 18.05839,18.3344 18.05839,18.528859999999998 18.05839,18.71576 18.10298,18.74647 18.43939,18.79131 18.64894,18.819209999999998 18.8266,18.84781 18.83419,18.85481 18.84179,18.861810000000002 18.84179,18.74371 18.83419,18.59236z M24.665899,23.687849999999997C24.696299,23.63865 24.807279,23.565679999999997 24.912523,23.525669999999998 25.086615000000002,23.45947 25.109298,23.379009999999997 25.164022,22.633499999999998 25.197102,22.18283 25.202932,21.792849999999998 25.176972,21.7669 25.151011999999998,21.7409 24.97769,21.7883 24.791804,21.87211 24.407992999999998,22.04518 24.385839,22.11335 24.346992999999998,23.24082 24.325393,23.86777 24.336392999999997,23.92405 24.466914999999997,23.8542 24.545954999999996,23.811899999999998 24.635493999999998,23.73704 24.665894999999995,23.687849999999997z M16.568283,22.0208C16.575783,21.547130000000003 16.553033,21.47098 16.352856000000003,21.30114 16.082475000000002,21.07173 15.323064000000002,19.93578 15.252724000000002,19.65553 15.205514000000003,19.46744 15.195134000000003,19.464299999999998 15.087892000000002,19.605629999999998 15.024942000000001,19.688629999999996 14.972230000000001,19.82238 14.970749000000001,19.90289 14.969249000000001,19.98339 14.887209000000002,20.295569999999998 14.788389000000002,20.59658 14.553108000000002,21.313299999999998 14.612863000000003,21.83483 14.950198000000002,22.0088 15.076436000000003,22.073900000000002 15.220597000000001,22.179280000000002 15.270553000000001,22.24298 15.320513000000002,22.30668 15.606259000000001,22.47953 15.905553000000001,22.62708 16.434530000000002,22.88787 16.45126,22.89055 16.504783,22.72288 16.535063,22.62808 16.563643,22.31207 16.568283,22.02072z M26.567389,21.413890000000002C26.776939,21.235650000000003 27.386539,20.737900000000003 27.922055999999998,20.30779 29.479411,19.05697 30.463188,18.00819 30.917050999999997,17.114900000000002 31.082392,16.78948 31.083299999999998,16.77982 30.948890999999996,16.776360000000004 30.802309999999995,16.772360000000003 30.192925999999996,16.670440000000003 30.038724999999996,16.623810000000002 29.862891999999995,16.570610000000002 29.755142999999997,16.665110000000002 29.652633999999995,16.96253 29.571723999999996,17.19723 29.536430999999997,17.215410000000002 29.188066999999997,17.20175 28.868405999999997,17.18925 28.185938999999998,17.00828 27.655911999999997,16.79552 27.548278999999997,16.75232 27.438958999999997,16.88062 27.173227999999998,17.36201 26.984281999999997,17.70429 26.691232999999997,18.1228 26.522008,18.29202 26.214999,18.59903 26.099038,18.6233 25.623131,18.48011 25.49989,18.44301 25.482621,18.53681 25.478316,19.26661 25.475616,19.72233 25.495236,20.58118 25.521876,21.17515L25.570325999999998,22.25511 25.878355999999997,21.99654C26.047773999999997,21.85433,26.357836999999996,21.59214,26.567386999999997,21.41389z M26.433791999999997,17.92096C26.600402999999996,17.72631 26.733713999999996,17.52628 26.730037999999997,17.47646 26.726338,17.42666 26.704137999999997,17.43346 26.680647999999998,17.49166 26.610947999999997,17.66439 26.2488,17.61245 26.106520999999997,17.40936 25.899305999999996,17.11352 25.947710999999998,16.87679 26.273999999999997,16.5903 26.569148,16.33116 26.780345999999998,16.25924 26.835499,16.3991 26.851018999999997,16.4385 26.961112,16.494500000000002 27.080144999999998,16.523590000000002 27.276180999999998,16.57149 27.318434999999997,16.53159 27.528671,16.103270000000002 27.656328,15.842990000000002 27.739228999999998,15.608480000000002 27.712896999999998,15.582150000000002 27.686566999999997,15.555850000000001 27.560928999999998,15.527450000000002 27.433704,15.519150000000002 26.202790999999998,15.438850000000002 24.497847,15.013650000000002 23.691491,14.58594 23.390332,14.426200000000001 23.104582,14.297 23.056490999999998,14.298820000000001 23.008401,14.300820000000002 22.759503999999996,14.576870000000001 22.503386999999996,14.91266 22.247270999999998,15.24844 21.886987999999995,15.664530000000001 21.702757999999996,15.83732 21.518528999999997,16.0101 21.385178999999997,16.16831 21.406424999999995,16.1889 21.467144999999995,16.2478 24.708155999999995,17.81088 25.085720999999996,17.96342 25.382817999999997,18.08344 25.908265999999998,18.24496 26.073956999999996,18.2672 26.105256999999998,18.2712 26.267177999999998,18.115579999999998 26.433789999999995,17.92093z M24.620036999999996,17.17416C24.493929999999995,16.93853 24.515480999999998,16.816390000000002 24.725992999999995,16.57367 24.974813999999995,16.28677 25.226976999999994,16.1582 25.540825999999996,16.1582 25.819632999999996,16.1582 25.937054999999997,16.268530000000002 25.833665999999994,16.43336 25.797155999999994,16.49156 25.777215999999992,16.59975 25.789355999999994,16.67376 25.815815999999995,16.83508 25.267220999999996,17.23264 24.937539999999995,17.29106 24.768665999999996,17.320960000000003 24.681427999999993,17.289060000000003 24.620039999999996,17.17416z M25.309176999999995,16.75815C25.419109999999996,16.669050000000002 25.481669999999994,16.56862 25.448197999999994,16.53502 25.375357999999995,16.46192 24.958722999999996,16.71935 24.958722999999996,16.83748 24.958722999999996,16.96559 25.089941999999997,16.93588 25.309176999999995,16.75818z M23.191591999999993,16.55229C22.98982399999999,16.309179999999998 22.992449999999995,15.95642 23.19829199999999,15.65143 23.43571199999999,15.29966 23.70020299999999,15.15169 23.991877999999993,15.20745 24.15200399999999,15.23805 24.19924199999999,15.29345 24.180031999999994,15.42809 24.159181999999994,15.57424 24.105181999999992,15.60295 23.891289999999994,15.581579999999999 23.662165999999996,15.558679999999999 23.609670999999995,15.59438 23.484705999999996,15.857689999999998 23.332172999999997,16.179129999999997 23.361349999999995,16.32753 23.577075999999995,16.32753 23.690735999999994,16.32753 23.693021999999996,16.30733 23.593245999999994,16.18468 23.490604999999995,16.05849 23.495715999999994,16.04884 23.637075999999993,16.10188 23.748369999999994,16.14368 23.833635999999995,16.10988 23.917042999999993,15.990730000000001 24.050611999999994,15.800030000000001 24.28137599999999,15.760090000000002 24.28137599999999,15.92763 24.28137599999999,16.05752 24.04387499999999,16.41423 23.861927999999992,16.55761 23.686144999999993,16.69613 23.30848899999999,16.6931 23.191577999999993,16.55261z M21.241858999999994,17.11531L21.651676999999996,16.717750000000002 20.612622999999996,16.159340000000004C20.041142999999995,15.852210000000003 19.461253999999997,15.523310000000004 19.323978999999994,15.428450000000003 18.948173999999995,15.168750000000003 17.958923999999996,14.634200000000003 17.854132999999994,14.634200000000003 17.803492999999992,14.634200000000003 17.762052999999995,14.662900000000004 17.762052999999995,14.698100000000004 17.762052999999995,14.775100000000004 18.335793999999993,15.225800000000003 18.867994999999993,15.566880000000003 19.080445999999995,15.703040000000003 19.587667999999994,16.196590000000004 19.995152999999995,16.663660000000004 20.402639999999995,17.130730000000003 20.757636999999995,17.512870000000003 20.784036999999994,17.512870000000003 20.810436999999993,17.512870000000003 21.016454999999993,17.333970000000004 21.241855999999995,17.115320000000004z M26.821388999999996,16.6585C26.821388999999996,16.604400000000002 26.767438999999996,16.6045 26.666259999999998,16.65858 26.430014999999997,16.78501 26.291580999999997,16.98573 26.362018,17.099700000000002 26.406398,17.1715 26.484225,17.1334 26.623307,16.971690000000002 26.732252,16.845050000000004 26.821389,16.704100000000004 26.821389,16.658500000000004z M29.428517999999997,16.6874C29.476737999999997,16.559350000000002 29.554797999999998,16.34027 29.601982999999997,16.20057 29.649172999999998,16.060869999999998 29.767055999999997,15.73702 29.863953999999996,15.480899999999998 30.309972999999996,14.30201 30.605635999999997,12.748639999999998 30.492075999999997,12.180839999999998 30.446375999999997,11.952319999999999 30.387095999999996,11.908789999999998 29.964488999999997,11.793449999999998 29.702633999999996,11.721949999999998 29.423942999999998,11.628139999999998 29.345173999999997,11.584909999999999 29.183242999999997,11.496009999999998 29.195907999999996,11.46638 28.983234999999997,12.432899999999998 28.483077999999995,14.705939999999998 28.356640999999996,15.136429999999999 27.945000999999998,15.967909999999998 27.823921,16.21249 27.746070999999997,16.433809999999998 27.772004,16.459739999999996 27.859154,16.546939999999996 28.978485,16.916649999999997 29.160617,16.918449999999996 29.280413999999997,16.919449999999998 29.370243,16.842149999999997 29.428517999999997,16.687399999999997z M31.573870999999997,16.20057C31.754273999999995,16.037589999999998 31.953230999999995,15.90424 32.015998999999994,15.90424 32.285512999999995,15.90424 32.647769,16.09785 32.75574399999999,16.299599999999998L32.87237499999999,16.517529999999997 34.27559999999999,16.481029999999997 35.67882499999999,16.444529999999997 36.47827299999999,15.642669999999997C36.91796999999999,15.201649999999997 37.48727199999999,14.596989999999998 37.743388999999986,14.298989999999996 37.99950599999999,14.000989999999996 38.279032999999984,13.684519999999996 38.36455999999998,13.595709999999997 38.468901999999986,13.487369999999997 38.50318999999998,13.367019999999997 38.46877999999998,13.229919999999996 38.426459999999985,13.061289999999996 38.36230399999998,13.024459999999996 38.10160899999998,13.019109999999996 37.73030099999998,13.011109999999997 37.61169799999998,12.989009999999997 37.29888899999998,12.866759999999996 37.10717699999998,12.791859999999996 37.06605599999998,12.723959999999996 37.06605599999998,12.482349999999995 37.06605599999998,12.320959999999994 37.01843599999998,12.158679999999995 36.96022199999998,12.121719999999994 36.85895099999998,12.057419999999995 36.81822299999998,12.043919999999995 36.65423199999998,12.020169999999995 36.61399199999998,12.014169999999995 36.58542199999998,11.868099999999995 36.59073199999998,11.695169999999996 36.59973199999998,11.400839999999995 36.58143199999998,11.377019999999996 36.30405599999998,11.322209999999995 36.14107199999998,11.290009999999995 35.92199699999998,11.243209999999994 35.81722199999998,11.218149999999994 35.69665699999998,11.189349999999994 35.62672199999998,11.212149999999994 35.62672199999998,11.278949999999995 35.62672199999998,11.337449999999995 35.51500599999998,11.492279999999994 35.37846499999998,11.623099999999996 35.24192299999998,11.753909999999996 35.026038999999976,12.025739999999995 34.89872199999998,12.227159999999996 34.52442299999998,12.819319999999996 34.099947999999976,12.891979999999997 32.95972199999998,12.559089999999996 32.44056199999998,12.407509999999997 31.21555999999998,12.341939999999996 30.94888899999998,12.451439999999996 30.83502099999998,12.498239999999996 30.80072299999998,12.612529999999996 30.80072299999998,12.945339999999996 30.80072299999998,13.443919999999997 30.56339999999998,14.446539999999997 30.20190099999998,15.475179999999996 30.063909999999982,15.867829999999996 29.980269999999983,16.217969999999998 30.016032999999982,16.253269999999997 30.08016299999998,16.31657 30.777288999999982,16.469039999999996 31.086793999999983,16.48746 31.174283999999982,16.492459999999998 31.393468999999982,16.36358 31.573870999999983,16.200599999999998z M21.510045,15.58456C21.802631,15.306239999999999 22.672723,14.17601 22.672723,14.074259999999999 22.672723,14.03286 22.510798,13.91265 22.312889000000002,13.807229999999999 22.114981,13.701809999999998 21.724456000000004,13.44704 21.445056,13.241069999999999 21.165656000000002,13.03511 20.811607000000002,12.778529999999998 20.65828,12.6709 19.091481,11.57101 17.697416,10.1291 17.654879,9.564409999999999 17.647479,9.46571 17.616029,9.384859999999998 17.585069,9.384859999999998 17.475295,9.384859999999998 17.296387,9.668819999999998 17.296387,9.843049999999998 17.296387,9.942749999999998 17.241017,10.020839999999998 17.169387,10.022099999999998 16.952143,10.026099999999998 16.85258,10.131089999999999 16.441001,10.791439999999998 15.971073,11.545409999999999 15.948946,11.805279999999998 16.298983,12.459369999999998 16.605021,13.031239999999999 17.696649999999998,14.112599999999999 18.231176,14.373379999999997 18.462109,14.486039999999997 18.670888,14.607499999999998 18.695130000000002,14.643279999999997 18.71937,14.679079999999997 19.214672000000004,14.976899999999997 19.795796000000003,15.305139999999998 20.953822000000002,15.959229999999998 21.092411000000002,15.981819999999997 21.510042000000002,15.584559999999998z M19.630868000000003,14.49578C19.391839000000004,14.1919 19.410529000000004,13.92508 19.692988000000003,13.60895 19.990150000000003,13.27637 20.318918000000004,13.25791 20.618022000000003,13.55705 20.797128000000004,13.73616 20.822803000000004,13.82008 20.775549000000005,14.07197 20.663182000000006,14.67093 19.970392000000004,14.92745 19.630868000000007,14.49582z M20.316556000000002,14.24007C20.519222000000003,14.056659999999999 20.513586000000004,13.81607 20.303996,13.703899999999999 20.171042,13.6328 20.101365,13.6496 19.965329,13.785599999999999 19.770211,13.980719999999998 19.748858000000002,14.131809999999998 19.895659000000002,14.278609999999999 20.03273,14.415679999999998 20.132634000000003,14.406529999999998 20.316559,14.240109999999998z M18.325512,13.1247C18.248442,13.0395 18.185389999999998,12.893780000000001 18.185389999999998,12.800790000000001 18.185389999999998,12.615050000000002 18.492841,12.288260000000001 18.693389999999997,12.260840000000002 18.950188999999998,12.225740000000002 19.017775999999998,12.26884 19.124097,12.538700000000002 19.183826999999997,12.690040000000002 19.246753,12.839050000000002 19.263925,12.869830000000002 19.281095,12.900630000000001 19.209715,13.005390000000002 19.105303,13.102660000000002 18.871129,13.320830000000003 18.512188,13.330970000000002 18.325512,13.124660000000002z M17.420094,12.139800000000001C16.928393999999997,11.872290000000001 16.902516,11.306450000000002 17.366153999999998,10.9603 17.570912,10.80742 17.607953,10.80314 17.723758999999998,10.9189 17.891303999999998,11.086450000000001 17.804819,11.30307 17.544265999999997,11.36846 17.299727999999998,11.429860000000001 17.280116999999997,11.59154 17.493765999999997,11.78489 17.662328,11.93743 17.777495,11.89422 17.705109999999998,11.70559 17.64324,11.544360000000001 17.928513,11.445 18.022674999999996,11.594990000000001 18.116684999999997,11.74473 18.039154999999997,12.020230000000002 17.864330999999996,12.157660000000002 17.700458999999995,12.286470000000001 17.688914999999998,12.286010000000001 17.420099999999998,12.139760000000003z M28.108213,14.62696C28.193552999999998,14.32826 28.356555999999998,13.645710000000001 28.470446,13.1102 28.584336,12.57468 28.735833,11.864220000000001 28.807105,11.53139 28.887215,11.15726 28.950641,10.30074 28.973234,9.28772 28.995284,8.29911 29.081876,7.11187 29.191545,6.29453 29.33532,5.22301 29.36171,4.72751 29.317806,3.92386 29.264976,2.9568 29.153512,2.12143 29.065577,2.0335 29.023137,1.991 28.332528,3.43239 28.220105,3.79805 28.184515,3.91381 27.691389,4.92293 27.124277,6.04053 26.557163,7.15813 25.849896,8.62498 25.552571,9.3002 25.029265,10.48861 24.029842000000002,12.50226 23.497352,13.44108L23.237643,13.89897 23.420073,14.04669C23.745019,14.30982 24.814942,14.70361 25.688665999999998,14.88166 26.546682999999998,15.05652 27.606423999999997,15.205210000000001 27.831720999999998,15.182360000000001 27.904460999999998,15.175360000000001 28.015197999999998,14.952530000000001 28.108213,14.62696z M23.871620999999998,11.94603C24.365185999999998,10.97977 25.011304999999997,9.63675 25.307441999999998,8.96153 25.603579,8.28631 26.285487999999997,6.857559999999999 26.822795999999997,5.78653 27.360102999999995,4.7155000000000005 27.920001999999997,3.5725 28.067015999999995,3.24653 28.214030999999995,2.92056 28.494283999999997,2.35732 28.689801999999997,1.99487 28.885319999999997,1.63242 29.025917999999997,1.3165 29.002240999999998,1.29283 28.937091,1.22763 28.227821999999996,1.52559 28.152506,1.64974 28.116266,1.70944 27.906719,1.84889 27.686839,1.95956 27.21887,2.1951 26.007600999999998,2.84556 25.763056,2.9926399999999997 25.669926,3.04864 25.136523,3.37993 24.577723,3.7288099999999997 24.018922999999997,4.07769 23.227332999999998,4.56909 22.818633,4.82083 22.189715999999997,5.20821 20.892919,6.1381 20.350212999999997,6.59086 20.266482999999997,6.66066 19.687998999999998,7.22101 19.064685999999995,7.83596 18.257114999999995,8.63269 17.931923999999995,9.00988 17.933248999999996,9.14829 17.941148999999996,9.976849999999999 19.484348999999995,11.4978 22.071848999999997,13.227319999999999 22.463151999999997,13.488869999999999 22.826266999999998,13.70286 22.878769999999996,13.70286 22.931269999999994,13.70286 23.378056999999995,12.912289999999999 23.871620999999998,11.94603z M38.895075,12.79734C38.937284999999996,12.572330000000001 38.919035,12.4658 38.826695,12.39814 38.757415,12.347439999999999 38.637435,12.183349999999999 38.560062,12.03361 38.468642,11.8567 38.376015,11.777999999999999 38.29554,11.80888 38.227430000000005,11.83498 38.070188,11.776580000000001 37.946123,11.67897 37.822057,11.58137 37.650722,11.501529999999999 37.565377,11.501529999999999 37.476276999999996,11.501529999999999 37.259947,11.30252 37.057347,11.03417 36.718821,10.585799999999999 36.69206,10.56899 36.398437,10.620339999999999 36.039451,10.683139999999998 35.68648,10.884739999999999 35.751464,10.98988 35.797394,11.064179999999999 36.444933,11.201519999999999 36.501483,11.14893 36.518283000000004,11.13333 36.596663,11.17413 36.675664,11.23973 36.765784,11.31453 36.810064999999994,11.45302 36.794509999999995,11.61144 36.775729999999996,11.80273 36.80752,11.8698 36.925642999999994,11.88805 37.13778299999999,11.92085 37.146857999999995,11.93515 37.21762799999999,12.34974 37.28587799999999,12.749550000000001 37.31187799999999,12.76439 38.06213899999999,12.831900000000001 38.389541999999985,12.861400000000001 38.53116699999999,12.915500000000002 38.59555299999999,13.035800000000002 38.71389399999999,13.256920000000003 38.82552399999999,13.168050000000003 38.89507099999999,12.797330000000002z M17.539079,8.90366C17.8247,8.59243,18.480891,7.91358,18.997282,7.39509L19.936173,6.4524 19.605274,5.99246C19.42328,5.7395 19.248429,5.53253 19.216716,5.53253 19.185006,5.53253 18.892356000000003,5.7083900000000005 18.566390000000002,5.92333 18.240423000000003,6.13826 17.535573000000003,6.5983 17.000056,6.9456299999999995 16.132574,7.508279999999999 16.015414,7.61339 15.925749000000001,7.9094999999999995 15.840899000000002,8.18972 15.846599000000001,8.27507 15.962059000000002,8.453529999999999 16.158049000000002,8.75644 16.843918000000002,9.469529999999999 16.939268000000002,9.469529999999999 16.983538000000003,9.469529999999999 17.253454,9.214889999999999 17.539075,8.903659999999999z M16.788216,6.6967C17.272077,6.38237 17.903454,5.981 18.191276,5.80475 18.691319,5.49856 18.712569,5.47185 18.669146,5.20427 18.644156,5.05025 18.493453,4.7182 18.334259,4.46638 17.992311,3.92548 17.986602,3.91135 17.672834,2.82931 17.475119,2.14748 17.367602,1.92364 17.103457,1.64397 16.924357,1.45435 16.688525,1.16261 16.579384,0.99568 16.328538,0.61201 15.694534,0.24925 15.346096,0.29004 15.204768,0.30654 14.818739,0.43162 14.488253,0.5679 14.157767,0.70418 13.759048,0.84185 13.602213,0.87383 11.966571,1.20735 9.694395,2.04373 8.702723,2.67731 8.117205,3.0514 6.394874,4.43713 5.968324,4.87732 5.696537,5.15779 5.665801,5.22466 5.769209,5.31048 5.836469,5.36628 5.98526,5.39498 6.099861,5.37418 6.492165,5.30308 7.644126999999999,4.97095 8.194723,4.77026 9.553421,4.275040000000001 11.556207,3.8082000000000003 12.409398,3.7878600000000002 13.414562,3.76386 14.569768,3.8815600000000003 14.841056,4.03565 15.147202,4.209490000000001 15.616323,5.08384 15.6803,5.59985 15.70458,5.79566 15.748000000000001,6.25114 15.776810000000001,6.61203 15.805610000000001,6.97292 15.84702,7.2682 15.868820000000001,7.2682 15.890630000000002,7.2682 16.304355,7.01102 16.788216000000002,6.6967z M0.002857,19.60836C0.024287000000000003,19.54336 0.231373,19.493370000000002 0.539079,19.478810000000003 1.380274,19.439010000000003 3.882901,19.13922 4.585634,18.994060000000005 5.174602,18.872410000000006 6.008464,18.600810000000006 6.815659,18.267730000000004 7.13236,18.137040000000002 7.296483,18.233330000000002 7.056324,18.408970000000004 6.770076,18.618280000000002 5.5662,19.045210000000004 4.775792,19.217720000000003 3.8500110000000003,19.419780000000003 1.342022,19.7142 0.5466139999999999,19.7142 0.12150399999999995,19.7142 -0.022790000000000088,19.686100000000003 0.0028569999999998874,19.60836z M5.35839,16.90411C4.846157,16.86811 3.907436,16.76287 3.272345,16.67017 2.637254,16.57747 1.750158,16.47578 1.301021,16.44421 0.76518,16.40651 0.495546,16.35481 0.5168,16.29367 0.56845,16.145139999999998 1.915962,16.20347 3.32639,16.41538 4.02489,16.52031 5.012959,16.61207 5.5221,16.61931 6.081352,16.627309999999998 6.459531,16.66761 6.47742,16.72129 6.544300000000001,16.92191 6.264056,16.9677 5.35839,16.90411z M12.392954,14.47656C12.365114,14.43146 12.683905,13.878599999999999 13.101382,13.247869999999999 14.00724,11.87929 14.177423999999998,11.55871 14.298976999999999,10.991919999999999 14.354676999999999,10.732219999999998 14.430143999999999,10.575079999999998 14.489182999999999,10.59588 14.655873999999999,10.65458 14.553342999999998,11.259989999999998 14.281759,11.820509999999999 14.018614999999999,12.36362 12.63262,14.486619999999998 12.511023,14.532829999999999 12.473923,14.546929999999998 12.420793,14.521629999999998 12.392954,14.476529999999999z M10.857471,13.695979999999999C10.826351,13.645579999999999 10.893651,13.502759999999999 11.007018,13.378479999999998 11.120387000000001,13.254209999999999 11.332130000000001,12.961759999999998 11.477558,12.728599999999998 11.767942,12.263039999999998 12.512723,10.727179999999999 12.512723,10.593929999999999 12.512723,10.478769999999999 12.907537,10.062199999999999 13.01668,10.062199999999999 13.162998,10.062199999999999 13.117030999999999,10.279419999999998 12.93606,10.4432 12.842929999999999,10.5275 12.766727,10.63979 12.766727,10.692779999999999 12.766727,10.879669999999999 11.760684999999999,12.820129999999999 11.414636,13.300699999999999 11.060863,13.791989999999998 10.96072,13.86304 10.857474999999999,13.695979999999999z M19.626337,22.271183999999998C19.605877,22.308063999999998 19.5091,22.086249 19.50106,21.959200999999997 19.482219999999998,21.661449999999995 19.60249,21.587738999999996 19.653921999999998,21.845814999999998 19.712891999999997,22.09153 19.777112,22.114918 19.683182,22.212273z" />
  </g>
</svg>